<?xml version="1.0" standalone="no"?>
<!DOCTYPE svg PUBLIC "-//W3C//DTD SVG 20010904//EN"
 "http://www.w3.org/TR/2001/REC-SVG-20010904/DTD/svg10.dtd">
<svg version="1.0" xmlns="http://www.w3.org/2000/svg"
 width="117.000000pt" height="117.000000pt" viewBox="0 0 117.000000 117.000000"
 preserveAspectRatio="xMidYMid meet">
<metadata>
Created by potrace 1.11, written by Peter Selinger 2001-2013
</metadata>
<g transform="translate(0.000000,117.000000) scale(0.100000,-0.100000)"
fill="#000000" stroke="none">
<path d="M553 1138 c-108 -81 -157 -244 -122 -408 15 -71 14 -182 -3 -214 -12
-23 -13 -19 -15 48 -2 99 -33 169 -86 198 -17 9 -18 7 -11 -14 14 -42 6 -116
-19 -175 -14 -32 -37 -85 -51 -118 -69 -160 10 -344 181 -422 50 -23 72 -27
158 -27 93 -1 105 1 165 31 124 61 190 153 198 279 4 67 2 77 -43 185 -69 166
-84 252 -61 342 l7 29 -31 -22 c-43 -31 -80 -82 -95 -135 -8 -25 -13 -47 -12
-49 1 -3 -1 -7 -4 -11 -18 -18 -120 154 -138 235 -20 87 -9 217 22 258 15 20
-6 14 -40 -10z m114 -630 c23 0 47 -5 55 -11 26 -22 108 -124 108 -135 0 -6
-23 -35 -51 -66 -45 -49 -49 -57 -38 -77 14 -27 14 -91 0 -118 -13 -24 -93
-52 -152 -52 -65 -1 -129 22 -153 54 -16 22 -21 43 -21 96 0 64 -2 71 -37 112
-21 24 -38 49 -38 54 1 12 9 23 69 93 l44 51 66 -2 c63 -2 66 -1 69 22 l4 25
17 -23 c14 -18 27 -23 58 -23z"/>
<path d="M460 472 c0 -4 -12 -21 -27 -37 -69 -78 -67 -64 -17 -120 24 -27 70
-80 101 -117 32 -37 63 -67 68 -67 6 0 42 36 80 81 39 44 85 96 103 115 l33
34 -48 59 -48 59 -122 0 c-68 1 -123 -2 -123 -7z m90 -26 c-1 -14 -28 -51 -34
-45 -10 11 -25 47 -21 51 9 9 55 4 55 -6z m120 -1 c0 -6 -3 -18 -6 -28 -6 -18
-7 -18 -25 -1 -26 24 -24 41 6 40 14 -1 25 -6 25 -11z m-186 -41 c5 -17 2 -22
-17 -26 -41 -8 -49 2 -25 32 24 29 32 28 42 -6z m129 10 c24 -32 19 -36 -33
-32 l-42 3 22 28 c26 33 30 33 53 1z m105 -32 c-38 -4 -41 0 -27 32 l13 27 22
-28 22 -28 -30 -3z m-191 -102 c13 -35 22 -65 20 -67 -2 -2 -32 28 -66 66 -61
70 -61 70 -34 73 43 6 54 -5 80 -72z m111 65 c3 -3 -44 -144 -51 -151 -4 -4
-57 142 -57 158 0 5 103 -2 108 -7z m90 -24 c-13 -14 -30 -33 -38 -42 -8 -8
-24 -28 -35 -42 -31 -42 -34 -32 -10 41 19 59 25 68 51 73 48 9 58 0 32 -30z"/>
</g>
</svg>
